<svg width="399" height="51" viewBox="0 0 399 51" fill="none" xmlns="http://www.w3.org/2000/svg">
<circle cx="22" cy="22" r="22" fill="#243666"/>
<circle cx="49.4136" cy="35.8221" r="5.41361" fill="#243666"/>
<path d="M65.592 41H76.896C79.896 41 82.236 40.28 83.916 38.84C85.62 37.376 86.472 35.36 86.472 32.792C86.472 31.568 86.232 30.416 85.752 29.336C85.272 28.256 84.432 27.332 83.232 26.564C83.976 25.892 84.516 25.148 84.852 24.332C85.212 23.516 85.392 22.652 85.392 21.74C85.392 19.388 84.636 17.54 83.124 16.196C81.612 14.852 79.536 14.18 76.896 14.18H65.592V41ZM70.488 24.584V18.356H77.148C78.156 18.356 78.96 18.632 79.56 19.184C80.16 19.736 80.46 20.48 80.46 21.416C80.46 22.352 80.16 23.12 79.56 23.72C78.96 24.296 78.156 24.584 77.148 24.584H70.488ZM70.488 36.68V28.868H77.4C78.672 28.868 79.68 29.228 80.424 29.948C81.192 30.644 81.576 31.592 81.576 32.792C81.576 33.968 81.192 34.916 80.424 35.636C79.68 36.332 78.672 36.68 77.4 36.68H70.488ZM97.0706 41.432C98.2946 41.432 99.3746 41.204 100.311 40.748C101.271 40.268 102.027 39.572 102.579 38.66V41H107.043V21.416H102.327V32.9C102.327 34.196 101.955 35.228 101.211 35.996C100.467 36.74 99.5186 37.112 98.3666 37.112C97.1906 37.112 96.2306 36.74 95.4866 35.996C94.7666 35.252 94.4066 34.256 94.4066 33.008V21.416H89.6906V33.404C89.6906 35.804 90.3386 37.748 91.6346 39.236C92.9546 40.7 94.7666 41.432 97.0706 41.432ZM111.426 19.22H116.142V14.18H111.426V19.22ZM111.426 41H116.142V21.416H111.426V41ZM120.497 41H125.213V13.748H120.497V41ZM138.495 41.216C139.287 41.216 140.067 41.156 140.835 41.036V36.968C140.379 37.04 139.959 37.076 139.575 37.076C138.423 37.076 137.583 36.812 137.055 36.284C136.527 35.756 136.263 35 136.263 34.016V25.628H140.763V21.416H136.263V16.952H131.547V18.464C131.547 19.424 131.283 20.156 130.755 20.66C130.227 21.164 129.483 21.416 128.523 21.416H128.163V25.628H131.547V34.268C131.547 36.452 132.147 38.156 133.347 39.38C134.571 40.604 136.287 41.216 138.495 41.216ZM155.769 41H159.945L164.553 27.788L169.089 41H173.301L180.033 21.416H175.065L170.961 33.728L166.641 21.416H162.465L158.109 33.764L154.005 21.416H149.037L155.769 41ZM182.618 19.22H187.334V14.18H182.618V19.22ZM182.618 41H187.334V21.416H182.618V41ZM200.616 41.216C201.408 41.216 202.188 41.156 202.956 41.036V36.968C202.5 37.04 202.08 37.076 201.696 37.076C200.544 37.076 199.704 36.812 199.176 36.284C198.648 35.756 198.384 35 198.384 34.016V25.628H202.884V21.416H198.384V16.952H193.668V18.464C193.668 19.424 193.404 20.156 192.876 20.66C192.348 21.164 191.604 21.416 190.644 21.416H190.284V25.628H193.668V34.268C193.668 36.452 194.268 38.156 195.468 39.38C196.692 40.604 198.408 41.216 200.616 41.216ZM206.559 41H211.275V29.516C211.275 28.244 211.647 27.224 212.391 26.456C213.135 25.688 214.083 25.304 215.235 25.304C216.387 25.304 217.335 25.688 218.079 26.456C218.823 27.2 219.195 28.22 219.195 29.516V41H223.911V28.4C223.911 26.936 223.599 25.652 222.975 24.548C222.351 23.42 221.475 22.544 220.347 21.92C219.243 21.296 217.971 20.984 216.531 20.984C215.403 20.984 214.383 21.188 213.471 21.596C212.559 21.98 211.827 22.568 211.275 23.36V13.748H206.559V41ZM247.906 41.432C249.898 41.432 251.746 41.084 253.45 40.388C255.154 39.692 256.642 38.72 257.914 37.472C259.186 36.224 260.17 34.76 260.866 33.08C261.586 31.376 261.946 29.54 261.946 27.572C261.946 25.58 261.586 23.744 260.866 22.064C260.17 20.384 259.186 18.932 257.914 17.708C256.642 16.46 255.154 15.488 253.45 14.792C251.746 14.096 249.898 13.748 247.906 13.748C245.914 13.748 244.066 14.096 242.362 14.792C240.658 15.488 239.17 16.46 237.898 17.708C236.65 18.932 235.666 20.384 234.946 22.064C234.25 23.744 233.902 25.58 233.902 27.572C233.902 29.54 234.25 31.376 234.946 33.08C235.666 34.76 236.662 36.224 237.934 37.472C239.206 38.72 240.694 39.692 242.398 40.388C244.102 41.084 245.938 41.432 247.906 41.432ZM247.906 36.968C246.178 36.968 244.618 36.56 243.226 35.744C241.858 34.928 240.778 33.812 239.986 32.396C239.194 30.98 238.798 29.372 238.798 27.572C238.798 25.772 239.194 24.176 239.986 22.784C240.778 21.368 241.858 20.252 243.226 19.436C244.618 18.62 246.178 18.212 247.906 18.212C249.658 18.212 251.218 18.62 252.586 19.436C253.954 20.252 255.034 21.368 255.826 22.784C256.618 24.176 257.014 25.772 257.014 27.572C257.014 29.372 256.618 30.98 255.826 32.396C255.034 33.812 253.954 34.928 252.586 35.744C251.218 36.56 249.658 36.968 247.906 36.968ZM265.903 41H270.619V29.516C270.619 28.244 270.979 27.224 271.699 26.456C272.443 25.688 273.403 25.304 274.579 25.304C275.755 25.304 276.703 25.688 277.423 26.456C278.167 27.2 278.539 28.22 278.539 29.516V41H283.255V28.4C283.255 26.936 282.943 25.652 282.319 24.548C281.695 23.42 280.819 22.544 279.691 21.92C278.587 21.296 277.315 20.984 275.875 20.984C274.651 20.984 273.547 21.224 272.563 21.704C271.603 22.184 270.859 22.892 270.331 23.828V21.416H265.903V41ZM296.531 41.432C298.523 41.432 300.263 40.988 301.751 40.1C303.263 39.188 304.319 38.036 304.919 36.644L301.103 34.772C300.671 35.516 300.071 36.128 299.303 36.608C298.559 37.064 297.647 37.292 296.567 37.292C295.151 37.292 293.963 36.86 293.003 35.996C292.043 35.132 291.491 33.98 291.347 32.54H305.459C305.555 32.276 305.615 31.976 305.639 31.64C305.687 31.28 305.711 30.92 305.711 30.56C305.711 28.808 305.339 27.212 304.595 25.772C303.851 24.332 302.771 23.18 301.355 22.316C299.939 21.428 298.211 20.984 296.171 20.984C294.347 20.984 292.691 21.428 291.203 22.316C289.739 23.204 288.575 24.416 287.711 25.952C286.871 27.464 286.451 29.204 286.451 31.172C286.451 33.068 286.871 34.796 287.711 36.356C288.551 37.916 289.727 39.152 291.239 40.064C292.751 40.976 294.515 41.432 296.531 41.432ZM296.171 24.872C297.419 24.872 298.451 25.256 299.267 26.024C300.107 26.768 300.575 27.74 300.671 28.94H291.455C291.719 27.644 292.271 26.648 293.111 25.952C293.975 25.232 294.995 24.872 296.171 24.872ZM318.718 41.432C320.134 41.432 321.442 41.192 322.642 40.712C323.842 40.208 324.874 39.524 325.738 38.66C326.602 37.772 327.226 36.776 327.61 35.672L323.47 33.8C323.086 34.832 322.474 35.648 321.634 36.248C320.818 36.824 319.846 37.112 318.718 37.112C317.686 37.112 316.762 36.86 315.946 36.356C315.154 35.852 314.53 35.156 314.074 34.268C313.618 33.356 313.39 32.336 313.39 31.208C313.39 30.056 313.618 29.036 314.074 28.148C314.53 27.26 315.154 26.564 315.946 26.06C316.762 25.556 317.686 25.304 318.718 25.304C319.846 25.304 320.818 25.604 321.634 26.204C322.474 26.804 323.086 27.596 323.47 28.58L327.61 26.78C327.202 25.628 326.566 24.62 325.702 23.756C324.838 22.868 323.806 22.184 322.606 21.704C321.406 21.224 320.11 20.984 318.718 20.984C316.774 20.984 315.022 21.428 313.462 22.316C311.926 23.204 310.714 24.416 309.826 25.952C308.938 27.488 308.494 29.228 308.494 31.172C308.494 33.116 308.938 34.868 309.826 36.428C310.714 37.964 311.926 39.188 313.462 40.1C315.022 40.988 316.774 41.432 318.718 41.432ZM340.296 41.432C341.568 41.432 342.744 41.216 343.824 40.784C344.904 40.328 345.804 39.68 346.524 38.84V41H350.988V13.748H346.272V23.396C344.808 21.788 342.804 20.984 340.26 20.984C338.412 20.984 336.732 21.44 335.22 22.352C333.732 23.24 332.556 24.464 331.692 26.024C330.828 27.56 330.396 29.288 330.396 31.208C330.396 33.128 330.828 34.868 331.692 36.428C332.556 37.964 333.732 39.188 335.22 40.1C336.708 40.988 338.4 41.432 340.296 41.432ZM340.8 37.112C339.744 37.112 338.796 36.86 337.956 36.356C337.116 35.852 336.456 35.156 335.976 34.268C335.52 33.356 335.292 32.336 335.292 31.208C335.292 30.08 335.52 29.072 335.976 28.184C336.456 27.296 337.116 26.6 337.956 26.096C338.796 25.568 339.744 25.304 340.8 25.304C341.856 25.304 342.792 25.556 343.608 26.06C344.448 26.564 345.096 27.26 345.552 28.148C346.032 29.036 346.272 30.056 346.272 31.208C346.272 32.36 346.032 33.38 345.552 34.268C345.096 35.156 344.448 35.852 343.608 36.356C342.792 36.86 341.856 37.112 340.8 37.112ZM364.952 41.432C366.848 41.432 368.576 41 370.136 40.136C371.696 39.248 372.944 38.036 373.88 36.5C374.816 34.94 375.284 33.176 375.284 31.208C375.284 29.24 374.816 27.488 373.88 25.952C372.968 24.416 371.732 23.204 370.172 22.316C368.612 21.428 366.872 20.984 364.952 20.984C363.008 20.984 361.256 21.428 359.696 22.316C358.136 23.204 356.888 24.416 355.952 25.952C355.04 27.488 354.584 29.24 354.584 31.208C354.584 33.176 355.04 34.928 355.952 36.464C356.888 38 358.136 39.212 359.696 40.1C361.28 40.988 363.032 41.432 364.952 41.432ZM364.952 37.112C363.896 37.112 362.948 36.86 362.108 36.356C361.292 35.852 360.644 35.156 360.164 34.268C359.708 33.356 359.48 32.336 359.48 31.208C359.48 30.08 359.708 29.072 360.164 28.184C360.644 27.296 361.292 26.6 362.108 26.096C362.948 25.568 363.896 25.304 364.952 25.304C366.008 25.304 366.932 25.568 367.724 26.096C368.54 26.6 369.176 27.296 369.632 28.184C370.112 29.072 370.352 30.08 370.352 31.208C370.352 32.336 370.112 33.356 369.632 34.268C369.176 35.156 368.54 35.852 367.724 36.356C366.932 36.86 366.008 37.112 364.952 37.112ZM387.437 41.216C388.229 41.216 389.009 41.156 389.777 41.036V36.968C389.321 37.04 388.901 37.076 388.517 37.076C387.365 37.076 386.525 36.812 385.997 36.284C385.469 35.756 385.205 35 385.205 34.016V25.628H389.705V21.416H385.205V16.952H380.489V18.464C380.489 19.424 380.225 20.156 379.697 20.66C379.169 21.164 378.425 21.416 377.465 21.416H377.105V25.628H380.489V34.268C380.489 36.452 381.089 38.156 382.289 39.38C383.513 40.604 385.229 41.216 387.437 41.216Z" fill="#243666"/>
</svg>
